<mxfile host="app.diagrams.net" modified="2023-10-04T21:06:20.421Z" agent="Mozilla/5.0 (Windows NT 10.0; Win64; x64) AppleWebKit/537.36 (KHTML, like Gecko) Chrome/117.0.0.0 Safari/537.36 Edg/117.0.2045.36" etag="8X55mPrM4tM6o4ekrAlY" version="22.0.2" type="device">
  <diagram name="Page-1" id="6NoOTgb-nOomTwfGk-uk">
    <mxGraphModel dx="1729" dy="778" grid="1" gridSize="10" guides="1" tooltips="1" connect="1" arrows="1" fold="1" page="1" pageScale="1" pageWidth="850" pageHeight="1100" math="0" shadow="0">
      <root>
        <mxCell id="0" />
        <mxCell id="1" parent="0" />
        <mxCell id="q37kI8BuK2R7TSmr0mxg-19" style="edgeStyle=orthogonalEdgeStyle;rounded=0;orthogonalLoop=1;jettySize=auto;html=1;exitX=0;exitY=0.75;exitDx=0;exitDy=0;entryX=0.25;entryY=0;entryDx=0;entryDy=0;" parent="1" source="q37kI8BuK2R7TSmr0mxg-1" target="q37kI8BuK2R7TSmr0mxg-8" edge="1">
          <mxGeometry relative="1" as="geometry" />
        </mxCell>
        <mxCell id="q37kI8BuK2R7TSmr0mxg-38" style="edgeStyle=orthogonalEdgeStyle;rounded=0;orthogonalLoop=1;jettySize=auto;html=1;exitX=0.5;exitY=1;exitDx=0;exitDy=0;entryX=0.5;entryY=0;entryDx=0;entryDy=0;" parent="1" source="q37kI8BuK2R7TSmr0mxg-1" target="q37kI8BuK2R7TSmr0mxg-9" edge="1">
          <mxGeometry relative="1" as="geometry" />
        </mxCell>
        <mxCell id="q37kI8BuK2R7TSmr0mxg-69" style="edgeStyle=orthogonalEdgeStyle;rounded=0;orthogonalLoop=1;jettySize=auto;html=1;exitX=1;exitY=0.75;exitDx=0;exitDy=0;entryX=0.5;entryY=0;entryDx=0;entryDy=0;" parent="1" source="q37kI8BuK2R7TSmr0mxg-1" target="q37kI8BuK2R7TSmr0mxg-2" edge="1">
          <mxGeometry relative="1" as="geometry" />
        </mxCell>
        <mxCell id="q37kI8BuK2R7TSmr0mxg-1" value="&lt;font style=&quot;font-size: 36px;&quot;&gt;main&lt;/font&gt;" style="rounded=1;whiteSpace=wrap;html=1;" parent="1" vertex="1">
          <mxGeometry x="360" width="120" height="80" as="geometry" />
        </mxCell>
        <mxCell id="q37kI8BuK2R7TSmr0mxg-2" value="&lt;font style=&quot;font-size: 18px;&quot;&gt;Get Filename&lt;/font&gt;" style="rounded=1;whiteSpace=wrap;html=1;" parent="1" vertex="1">
          <mxGeometry x="680" y="120" width="120" height="40" as="geometry" />
        </mxCell>
        <mxCell id="q37kI8BuK2R7TSmr0mxg-21" style="edgeStyle=orthogonalEdgeStyle;rounded=0;orthogonalLoop=1;jettySize=auto;html=1;exitX=0.5;exitY=1;exitDx=0;exitDy=0;entryX=0;entryY=0.25;entryDx=0;entryDy=0;" parent="1" source="q37kI8BuK2R7TSmr0mxg-3" target="q37kI8BuK2R7TSmr0mxg-13" edge="1">
          <mxGeometry relative="1" as="geometry" />
        </mxCell>
        <mxCell id="q37kI8BuK2R7TSmr0mxg-22" style="edgeStyle=orthogonalEdgeStyle;rounded=0;orthogonalLoop=1;jettySize=auto;html=1;exitX=0;exitY=1;exitDx=0;exitDy=0;entryX=0;entryY=0.25;entryDx=0;entryDy=0;" parent="1" source="q37kI8BuK2R7TSmr0mxg-3" target="q37kI8BuK2R7TSmr0mxg-14" edge="1">
          <mxGeometry relative="1" as="geometry" />
        </mxCell>
        <mxCell id="AIQEEASey8o-muqXDeDI-2" style="edgeStyle=orthogonalEdgeStyle;rounded=0;orthogonalLoop=1;jettySize=auto;html=1;exitX=1;exitY=0.5;exitDx=0;exitDy=0;entryX=0;entryY=0.25;entryDx=0;entryDy=0;" edge="1" parent="1" source="q37kI8BuK2R7TSmr0mxg-3" target="AIQEEASey8o-muqXDeDI-1">
          <mxGeometry relative="1" as="geometry" />
        </mxCell>
        <mxCell id="q37kI8BuK2R7TSmr0mxg-3" value="&lt;font style=&quot;font-size: 18px;&quot;&gt;Get location&lt;/font&gt;" style="rounded=1;whiteSpace=wrap;html=1;" parent="1" vertex="1">
          <mxGeometry x="120" y="200" width="120" height="40" as="geometry" />
        </mxCell>
        <mxCell id="q37kI8BuK2R7TSmr0mxg-24" style="edgeStyle=orthogonalEdgeStyle;rounded=0;orthogonalLoop=1;jettySize=auto;html=1;exitX=0.5;exitY=1;exitDx=0;exitDy=0;entryX=0.5;entryY=0;entryDx=0;entryDy=0;" parent="1" source="q37kI8BuK2R7TSmr0mxg-4" target="q37kI8BuK2R7TSmr0mxg-15" edge="1">
          <mxGeometry relative="1" as="geometry" />
        </mxCell>
        <mxCell id="q37kI8BuK2R7TSmr0mxg-4" value="&lt;font style=&quot;font-size: 18px;&quot;&gt;Get num&lt;/font&gt;" style="rounded=1;whiteSpace=wrap;html=1;" parent="1" vertex="1">
          <mxGeometry x="520" y="160" width="120" height="40" as="geometry" />
        </mxCell>
        <mxCell id="q37kI8BuK2R7TSmr0mxg-5" value="&lt;font style=&quot;font-size: 18px;&quot;&gt;load file&lt;/font&gt;" style="rounded=1;whiteSpace=wrap;html=1;" parent="1" vertex="1">
          <mxGeometry x="40" y="160" width="120" height="40" as="geometry" />
        </mxCell>
        <mxCell id="q37kI8BuK2R7TSmr0mxg-37" style="edgeStyle=orthogonalEdgeStyle;rounded=0;orthogonalLoop=1;jettySize=auto;html=1;exitX=0.25;exitY=0;exitDx=0;exitDy=0;entryX=0.25;entryY=1;entryDx=0;entryDy=0;" parent="1" source="q37kI8BuK2R7TSmr0mxg-6" target="q37kI8BuK2R7TSmr0mxg-5" edge="1">
          <mxGeometry relative="1" as="geometry" />
        </mxCell>
        <mxCell id="q37kI8BuK2R7TSmr0mxg-6" value="&lt;span style=&quot;font-size: 18px;&quot;&gt;save file&lt;/span&gt;" style="rounded=1;whiteSpace=wrap;html=1;" parent="1" vertex="1">
          <mxGeometry x="40" y="360" width="120" height="40" as="geometry" />
        </mxCell>
        <mxCell id="q37kI8BuK2R7TSmr0mxg-36" style="edgeStyle=orthogonalEdgeStyle;rounded=0;orthogonalLoop=1;jettySize=auto;html=1;exitX=0.25;exitY=0;exitDx=0;exitDy=0;entryX=0.25;entryY=1;entryDx=0;entryDy=0;" parent="1" source="q37kI8BuK2R7TSmr0mxg-7" target="q37kI8BuK2R7TSmr0mxg-6" edge="1">
          <mxGeometry relative="1" as="geometry" />
        </mxCell>
        <mxCell id="q37kI8BuK2R7TSmr0mxg-7" value="&lt;font style=&quot;font-size: 18px;&quot;&gt;quit&lt;/font&gt;" style="rounded=1;whiteSpace=wrap;html=1;" parent="1" vertex="1">
          <mxGeometry x="40" y="440" width="120" height="40" as="geometry" />
        </mxCell>
        <mxCell id="q37kI8BuK2R7TSmr0mxg-18" style="edgeStyle=orthogonalEdgeStyle;rounded=0;orthogonalLoop=1;jettySize=auto;html=1;exitX=0;exitY=0.25;exitDx=0;exitDy=0;entryX=1;entryY=0.25;entryDx=0;entryDy=0;" parent="1" source="q37kI8BuK2R7TSmr0mxg-8" target="q37kI8BuK2R7TSmr0mxg-5" edge="1">
          <mxGeometry relative="1" as="geometry" />
        </mxCell>
        <mxCell id="q37kI8BuK2R7TSmr0mxg-8" value="&lt;span style=&quot;font-size: 18px;&quot;&gt;display board&lt;/span&gt;" style="rounded=1;whiteSpace=wrap;html=1;" parent="1" vertex="1">
          <mxGeometry x="200" y="120" width="120" height="40" as="geometry" />
        </mxCell>
        <mxCell id="q37kI8BuK2R7TSmr0mxg-26" style="edgeStyle=orthogonalEdgeStyle;rounded=0;orthogonalLoop=1;jettySize=auto;html=1;exitX=0.25;exitY=1;exitDx=0;exitDy=0;entryX=0.75;entryY=0;entryDx=0;entryDy=0;" parent="1" source="q37kI8BuK2R7TSmr0mxg-9" target="q37kI8BuK2R7TSmr0mxg-3" edge="1">
          <mxGeometry relative="1" as="geometry" />
        </mxCell>
        <mxCell id="q37kI8BuK2R7TSmr0mxg-27" style="edgeStyle=orthogonalEdgeStyle;rounded=0;orthogonalLoop=1;jettySize=auto;html=1;exitX=1;exitY=0.75;exitDx=0;exitDy=0;entryX=0;entryY=0.25;entryDx=0;entryDy=0;" parent="1" source="q37kI8BuK2R7TSmr0mxg-9" target="q37kI8BuK2R7TSmr0mxg-4" edge="1">
          <mxGeometry relative="1" as="geometry" />
        </mxCell>
        <mxCell id="AIQEEASey8o-muqXDeDI-9" style="edgeStyle=orthogonalEdgeStyle;rounded=0;orthogonalLoop=1;jettySize=auto;html=1;exitX=0.5;exitY=1;exitDx=0;exitDy=0;" edge="1" parent="1" source="q37kI8BuK2R7TSmr0mxg-9" target="q37kI8BuK2R7TSmr0mxg-10">
          <mxGeometry relative="1" as="geometry">
            <Array as="points">
              <mxPoint x="440" y="160" />
            </Array>
          </mxGeometry>
        </mxCell>
        <mxCell id="AIQEEASey8o-muqXDeDI-10" style="edgeStyle=orthogonalEdgeStyle;rounded=0;orthogonalLoop=1;jettySize=auto;html=1;exitX=0.75;exitY=1;exitDx=0;exitDy=0;entryX=0.25;entryY=0;entryDx=0;entryDy=0;" edge="1" parent="1" source="q37kI8BuK2R7TSmr0mxg-9" target="q37kI8BuK2R7TSmr0mxg-11">
          <mxGeometry relative="1" as="geometry">
            <Array as="points">
              <mxPoint x="450" y="280" />
              <mxPoint x="550" y="280" />
            </Array>
          </mxGeometry>
        </mxCell>
        <mxCell id="AIQEEASey8o-muqXDeDI-11" style="edgeStyle=orthogonalEdgeStyle;rounded=0;orthogonalLoop=1;jettySize=auto;html=1;exitX=1;exitY=1;exitDx=0;exitDy=0;entryX=0.25;entryY=0;entryDx=0;entryDy=0;movable=1;resizable=1;rotatable=1;deletable=1;editable=1;locked=0;connectable=1;" edge="1" parent="1" source="q37kI8BuK2R7TSmr0mxg-9" target="q37kI8BuK2R7TSmr0mxg-12">
          <mxGeometry relative="1" as="geometry">
            <Array as="points">
              <mxPoint x="480" y="240" />
              <mxPoint x="500" y="240" />
              <mxPoint x="500" y="430" />
              <mxPoint x="710" y="430" />
            </Array>
          </mxGeometry>
        </mxCell>
        <mxCell id="q37kI8BuK2R7TSmr0mxg-9" value="&lt;span style=&quot;font-size: 18px;&quot;&gt;place on board&lt;/span&gt;" style="rounded=1;whiteSpace=wrap;html=1;" parent="1" vertex="1">
          <mxGeometry x="360" y="120" width="120" height="40" as="geometry" />
        </mxCell>
        <mxCell id="q37kI8BuK2R7TSmr0mxg-10" value="&lt;span style=&quot;font-size: 18px;&quot;&gt;check row&lt;/span&gt;" style="rounded=1;whiteSpace=wrap;html=1;" parent="1" vertex="1">
          <mxGeometry x="360" y="480" width="120" height="40" as="geometry" />
        </mxCell>
        <mxCell id="q37kI8BuK2R7TSmr0mxg-11" value="&lt;span style=&quot;font-size: 18px;&quot;&gt;check colum&lt;/span&gt;" style="rounded=1;whiteSpace=wrap;html=1;" parent="1" vertex="1">
          <mxGeometry x="520" y="480" width="120" height="40" as="geometry" />
        </mxCell>
        <mxCell id="q37kI8BuK2R7TSmr0mxg-12" value="&lt;span style=&quot;font-size: 18px;&quot;&gt;check square&lt;/span&gt;" style="rounded=1;whiteSpace=wrap;html=1;" parent="1" vertex="1">
          <mxGeometry x="680" y="480" width="120" height="40" as="geometry" />
        </mxCell>
        <mxCell id="q37kI8BuK2R7TSmr0mxg-35" style="edgeStyle=orthogonalEdgeStyle;rounded=0;orthogonalLoop=1;jettySize=auto;html=1;exitX=0.828;exitY=1.008;exitDx=0;exitDy=0;entryX=1;entryY=0.25;entryDx=0;entryDy=0;exitPerimeter=0;" parent="1" target="q37kI8BuK2R7TSmr0mxg-7" edge="1">
          <mxGeometry relative="1" as="geometry">
            <mxPoint x="229.3599999999999" y="240.32000000000005" as="sourcePoint" />
            <mxPoint x="110" y="480" as="targetPoint" />
            <Array as="points">
              <mxPoint x="229" y="260" />
              <mxPoint x="410" y="260" />
              <mxPoint x="410" y="450" />
            </Array>
          </mxGeometry>
        </mxCell>
        <mxCell id="AIQEEASey8o-muqXDeDI-15" style="edgeStyle=orthogonalEdgeStyle;rounded=0;orthogonalLoop=1;jettySize=auto;html=1;exitX=1;exitY=0.5;exitDx=0;exitDy=0;entryX=1;entryY=0.5;entryDx=0;entryDy=0;" edge="1" parent="1" source="q37kI8BuK2R7TSmr0mxg-13" target="AIQEEASey8o-muqXDeDI-14">
          <mxGeometry relative="1" as="geometry" />
        </mxCell>
        <mxCell id="q37kI8BuK2R7TSmr0mxg-13" value="&lt;span style=&quot;font-size: 18px;&quot;&gt;check location1&lt;/span&gt;" style="rounded=1;whiteSpace=wrap;html=1;" parent="1" vertex="1">
          <mxGeometry x="200" y="280" width="120" height="40" as="geometry" />
        </mxCell>
        <mxCell id="q37kI8BuK2R7TSmr0mxg-14" value="&lt;span style=&quot;font-size: 18px;&quot;&gt;check location2&lt;/span&gt;" style="rounded=1;whiteSpace=wrap;html=1;" parent="1" vertex="1">
          <mxGeometry x="200" y="320" width="120" height="40" as="geometry" />
        </mxCell>
        <mxCell id="AIQEEASey8o-muqXDeDI-4" style="edgeStyle=orthogonalEdgeStyle;rounded=0;orthogonalLoop=1;jettySize=auto;html=1;entryX=1;entryY=0.5;entryDx=0;entryDy=0;exitX=1;exitY=0.25;exitDx=0;exitDy=0;" edge="1" parent="1" source="q37kI8BuK2R7TSmr0mxg-9" target="q37kI8BuK2R7TSmr0mxg-16">
          <mxGeometry relative="1" as="geometry">
            <mxPoint x="510" y="110" as="sourcePoint" />
            <Array as="points">
              <mxPoint x="660" y="130" />
              <mxPoint x="660" y="170" />
              <mxPoint x="780" y="170" />
              <mxPoint x="780" y="340" />
            </Array>
          </mxGeometry>
        </mxCell>
        <mxCell id="q37kI8BuK2R7TSmr0mxg-15" value="&lt;span style=&quot;font-size: 18px;&quot;&gt;valid input&lt;/span&gt;" style="rounded=1;whiteSpace=wrap;html=1;" parent="1" vertex="1">
          <mxGeometry x="630" y="240" width="120" height="40" as="geometry" />
        </mxCell>
        <mxCell id="q37kI8BuK2R7TSmr0mxg-63" style="edgeStyle=orthogonalEdgeStyle;rounded=0;orthogonalLoop=1;jettySize=auto;html=1;exitX=0;exitY=0.5;exitDx=0;exitDy=0;entryX=0.75;entryY=0;entryDx=0;entryDy=0;" parent="1" source="q37kI8BuK2R7TSmr0mxg-16" target="q37kI8BuK2R7TSmr0mxg-10" edge="1">
          <mxGeometry relative="1" as="geometry" />
        </mxCell>
        <mxCell id="q37kI8BuK2R7TSmr0mxg-65" style="edgeStyle=orthogonalEdgeStyle;rounded=0;orthogonalLoop=1;jettySize=auto;html=1;exitX=0.25;exitY=1;exitDx=0;exitDy=0;entryX=0.5;entryY=0;entryDx=0;entryDy=0;" parent="1" source="q37kI8BuK2R7TSmr0mxg-16" target="q37kI8BuK2R7TSmr0mxg-11" edge="1">
          <mxGeometry relative="1" as="geometry">
            <mxPoint x="550" y="480" as="targetPoint" />
          </mxGeometry>
        </mxCell>
        <mxCell id="AIQEEASey8o-muqXDeDI-7" style="edgeStyle=orthogonalEdgeStyle;rounded=0;orthogonalLoop=1;jettySize=auto;html=1;exitX=0.75;exitY=1;exitDx=0;exitDy=0;entryX=0.5;entryY=0;entryDx=0;entryDy=0;" edge="1" parent="1" source="q37kI8BuK2R7TSmr0mxg-16" target="q37kI8BuK2R7TSmr0mxg-12">
          <mxGeometry relative="1" as="geometry" />
        </mxCell>
        <mxCell id="q37kI8BuK2R7TSmr0mxg-16" value="&lt;span style=&quot;font-size: 18px;&quot;&gt;helper&lt;/span&gt;" style="rounded=1;whiteSpace=wrap;html=1;" parent="1" vertex="1">
          <mxGeometry x="630" y="320" width="120" height="40" as="geometry" />
        </mxCell>
        <mxCell id="q37kI8BuK2R7TSmr0mxg-50" value="filename" style="text;html=1;strokeColor=none;fillColor=none;align=center;verticalAlign=middle;whiteSpace=wrap;rounded=0;" parent="1" vertex="1">
          <mxGeometry x="120" y="125" width="60" height="30" as="geometry" />
        </mxCell>
        <mxCell id="q37kI8BuK2R7TSmr0mxg-51" value="filename" style="text;html=1;strokeColor=none;fillColor=none;align=center;verticalAlign=middle;whiteSpace=wrap;rounded=0;" parent="1" vertex="1">
          <mxGeometry x="10" y="260" width="60" height="30" as="geometry" />
        </mxCell>
        <mxCell id="q37kI8BuK2R7TSmr0mxg-58" value="input" style="text;html=1;strokeColor=none;fillColor=none;align=center;verticalAlign=middle;whiteSpace=wrap;rounded=0;rotation=0;" parent="1" vertex="1">
          <mxGeometry x="640" y="190" width="60" height="30" as="geometry" />
        </mxCell>
        <mxCell id="q37kI8BuK2R7TSmr0mxg-61" value="board" style="text;html=1;strokeColor=none;fillColor=none;align=center;verticalAlign=middle;whiteSpace=wrap;rounded=0;rotation=0;" parent="1" vertex="1">
          <mxGeometry x="70" y="410" width="60" height="30" as="geometry" />
        </mxCell>
        <mxCell id="AIQEEASey8o-muqXDeDI-1" value="&lt;font style=&quot;font-size: 18px;&quot;&gt;Convert&lt;br&gt;&lt;/font&gt;" style="rounded=1;whiteSpace=wrap;html=1;" vertex="1" parent="1">
          <mxGeometry x="290" y="210" width="120" height="40" as="geometry" />
        </mxCell>
        <mxCell id="AIQEEASey8o-muqXDeDI-3" value="input" style="text;html=1;strokeColor=none;fillColor=none;align=center;verticalAlign=middle;whiteSpace=wrap;rounded=0;rotation=0;" vertex="1" parent="1">
          <mxGeometry x="240" y="220" width="60" height="30" as="geometry" />
        </mxCell>
        <mxCell id="AIQEEASey8o-muqXDeDI-5" value="board&lt;br&gt;row&lt;br&gt;column" style="text;html=1;strokeColor=none;fillColor=none;align=center;verticalAlign=middle;whiteSpace=wrap;rounded=0;rotation=0;" vertex="1" parent="1">
          <mxGeometry x="120" y="240" width="60" height="60" as="geometry" />
        </mxCell>
        <mxCell id="AIQEEASey8o-muqXDeDI-6" value="board&lt;br&gt;row&lt;br&gt;column&lt;br&gt;num" style="text;html=1;strokeColor=none;fillColor=none;align=center;verticalAlign=middle;whiteSpace=wrap;rounded=0;rotation=0;" vertex="1" parent="1">
          <mxGeometry x="660" y="360" width="60" height="60" as="geometry" />
        </mxCell>
        <mxCell id="AIQEEASey8o-muqXDeDI-8" value="board&lt;br&gt;row&lt;br&gt;column&lt;br&gt;num" style="text;html=1;strokeColor=none;fillColor=none;align=center;verticalAlign=middle;whiteSpace=wrap;rounded=0;rotation=0;" vertex="1" parent="1">
          <mxGeometry x="440" y="280" width="60" height="60" as="geometry" />
        </mxCell>
        <mxCell id="AIQEEASey8o-muqXDeDI-12" value="board&lt;br&gt;row&lt;br&gt;column" style="text;html=1;strokeColor=none;fillColor=none;align=center;verticalAlign=middle;whiteSpace=wrap;rounded=0;rotation=0;" vertex="1" parent="1">
          <mxGeometry x="720" y="170" width="60" height="60" as="geometry" />
        </mxCell>
        <mxCell id="AIQEEASey8o-muqXDeDI-13" value="board" style="text;html=1;strokeColor=none;fillColor=none;align=center;verticalAlign=middle;whiteSpace=wrap;rounded=0;rotation=0;" vertex="1" parent="1">
          <mxGeometry x="350" y="420" width="60" height="30" as="geometry" />
        </mxCell>
        <mxCell id="AIQEEASey8o-muqXDeDI-14" value="&lt;font style=&quot;font-size: 18px;&quot;&gt;Re Convert&lt;br&gt;&lt;/font&gt;" style="rounded=1;whiteSpace=wrap;html=1;" vertex="1" parent="1">
          <mxGeometry x="200" y="380" width="120" height="40" as="geometry" />
        </mxCell>
        <mxCell id="AIQEEASey8o-muqXDeDI-16" value="column" style="text;html=1;strokeColor=none;fillColor=none;align=center;verticalAlign=middle;whiteSpace=wrap;rounded=0;rotation=0;" vertex="1" parent="1">
          <mxGeometry x="340" y="330" width="60" height="30" as="geometry" />
        </mxCell>
      </root>
    </mxGraphModel>
  </diagram>
</mxfile>
